<svg xmlns="http://www.w3.org/2000/svg" width="36" height="36" fill="none" class="t-sociallinks__svg" viewBox="0 0 100 100"><path fill="#fff" fill-rule="evenodd" d="M50 100c27.614 0 50-22.386 50-50S77.614 0 50 0 0 22.386 0 50s22.386 50 50 50m-1.472-51.007q1.63-.83 2.463-1.841c1-1.203 1.495-2.786 1.495-4.764 0-1.917-.49-3.567-1.48-4.941-1.648-2.242-4.44-3.383-8.38-3.447H27v32.357h14.572q2.46-.001 4.568-.437 2.105-.436 3.652-1.624a8.9 8.9 0 0 0 2.29-2.542c.963-1.521 1.437-3.243 1.437-5.163q0-2.785-1.261-4.74c-.835-1.306-2.084-2.255-3.73-2.858M34.462 39.62h6.022c1.548 0 2.823.172 3.82.506 1.16.48 1.738 1.48 1.738 2.985q.001 2.043-1.312 2.845t-3.42.802h-6.848zm10.115 20.55c-.785.384-1.872.568-3.276.568h-6.838v-8.623h6.945c1.387.013 2.47.193 3.236.548 1.37.624 2.058 1.786 2.058 3.467 0 1.992-.71 3.335-2.125 4.04m29.384-24.826v3.236H60.93v-3.236zm2.985 10.728c.95 1.38 1.562 2.976 1.847 4.793.158 1.06.228 2.595.2 4.602H62.116c.093 2.33.897 3.959 2.423 4.89.92.585 2.035.87 3.34.87 1.377 0 2.5-.348 3.363-1.063.471-.379.886-.914 1.245-1.59h6.186c-.162 1.376-.907 2.772-2.246 4.19-2.073 2.254-4.982 3.384-8.716 3.384q-4.626-.002-8.165-2.852c-2.352-1.906-3.534-4.997-3.534-9.285 0-4.02 1.06-7.099 3.19-9.24 2.135-2.147 4.892-3.215 8.291-3.215q3.021-.001 5.45 1.084c1.616.724 2.95 1.865 4.002 3.432m-13.067 1.81c-.861.879-1.396 2.075-1.616 3.588h10.442q-.168-2.414-1.62-3.663c-.96-.836-2.16-1.255-3.59-1.255-1.559 0-2.762.448-3.616 1.33" clip-rule="evenodd"/></svg>