<svg width="640" height="641" viewBox="0 0 640 641" fill="none" xmlns="http://www.w3.org/2000/svg">
<g clip-path="url(#clip0_14_23)">
<g clip-path="url(#clip1_14_23)">
<path d="M319.611 605.893C477.223 605.893 604.993 478.124 604.993 320.512C604.993 162.9 477.223 35.1306 319.611 35.1306C161.999 35.1306 34.2297 162.9 34.2297 320.512C34.2297 478.124 161.999 605.893 319.611 605.893Z" stroke="white" stroke-width="23"/>
<path d="M330.236 178.09L379.777 227.631L280.697 326.712L231.156 277.171C218.098 264.112 210.73 246.421 210.658 227.954C210.586 209.486 217.816 191.738 230.772 178.578L231.641 177.708C244.802 164.752 262.55 157.522 281.018 157.593C299.485 157.665 317.176 165.033 330.236 178.09Z" fill="white"/>
<path d="M330.236 178.09L379.777 227.631L280.697 326.712L231.156 277.171C218.098 264.112 210.73 246.421 210.658 227.954C210.586 209.486 217.816 191.738 230.772 178.578L231.641 177.708C244.802 164.752 262.55 157.522 281.018 157.593C299.485 157.665 317.176 165.033 330.236 178.09Z" stroke="white"/>
<path d="M319.752 0.900848C143.137 0.900848 0 144.038 0 320.651C0 497.266 143.137 640.5 319.752 640.5C496.367 640.5 639.6 497.266 639.6 320.651C639.6 144.038 496.365 0.900848 319.752 0.900848ZM527.243 375.098L414.986 262.839L315.903 361.922L428.163 474.181L392.955 509.389L280.697 397.129L168.245 509.578L133.134 474.371L245.585 361.922L195.948 312.378C178.158 294.621 166.439 271.691 162.468 246.87C160.352 234.164 160.352 221.195 162.468 208.488C166.451 183.636 178.172 160.674 195.961 142.867C213.75 125.061 236.701 113.319 261.55 109.312C274.264 107.292 287.217 107.292 299.931 109.312C324.746 113.359 347.663 125.103 365.44 142.884L414.979 192.424L450.187 227.631L562.447 339.891L527.243 375.098Z" fill="white"/>
<path d="M319.752 0.900848C143.137 0.900848 0 144.038 0 320.651C0 497.266 143.137 640.5 319.752 640.5C496.367 640.5 639.6 497.266 639.6 320.651C639.6 144.038 496.365 0.900848 319.752 0.900848ZM527.243 375.098L414.986 262.839L315.903 361.922L428.163 474.181L392.955 509.389L280.697 397.129L168.245 509.578L133.134 474.371L245.585 361.922L195.948 312.378C178.158 294.621 166.439 271.691 162.468 246.87C160.352 234.164 160.352 221.195 162.468 208.488C166.451 183.636 178.172 160.674 195.961 142.867C213.75 125.061 236.701 113.319 261.55 109.312C274.264 107.292 287.217 107.292 299.931 109.312C324.746 113.359 347.663 125.103 365.44 142.884L414.979 192.424L450.187 227.631L562.447 339.891L527.243 375.098Z" stroke="white"/>
</g>
</g>
<defs>
<clipPath id="clip0_14_23">
<rect width="640" height="640" fill="white" transform="translate(0 0.900848)"/>
</clipPath>
<clipPath id="clip1_14_23">
<rect width="640" height="640" fill="white" transform="translate(0 0.900848)"/>
</clipPath>
</defs>
</svg>
