<svg xmlns="http://www.w3.org/2000/svg" version="1.1" xmlns:xlink="http://www.w3.org/1999/xlink" xmlns:svgjs="http://svgjs.dev/svgjs" width="721" height="721"><svg width="721" height="721" viewBox="0 0 721 721" fill="none" xmlns="http://www.w3.org/2000/svg">
<circle cx="360.062" cy="360.062" r="321.5" fill="white" stroke="black" stroke-width="23"></circle>
<path d="M372.032 199.615L427.843 255.426L316.223 367.047L260.412 311.236C245.701 296.524 237.4 276.594 237.319 255.789C237.238 234.984 245.383 214.99 259.979 200.164L260.958 199.184C275.785 184.588 295.779 176.443 316.584 176.524C337.389 176.605 357.319 184.905 372.032 199.615Z" fill="black"></path>
<path d="M372.032 199.615L427.843 255.426L316.223 367.047L260.412 311.236C245.701 296.524 237.4 276.594 237.319 255.789C237.238 234.984 245.383 214.99 259.979 200.164L260.958 199.184C275.785 184.588 295.779 176.443 316.584 176.524C337.389 176.605 357.319 184.905 372.032 199.615Z" stroke="black"></path>
<path d="M360.221 0C161.253 0 0 161.253 0 360.219C0 559.186 161.253 720.548 360.221 720.548C559.188 720.548 720.549 559.186 720.549 360.219C720.549 161.253 559.186 0 360.221 0ZM593.972 421.556L467.508 295.09L355.884 406.713L482.352 533.18L442.688 572.844L316.223 446.376L189.539 573.057L149.984 533.394L276.667 406.713L220.748 350.899C200.706 330.894 187.504 305.062 183.03 277.1C180.647 262.785 180.647 248.175 183.03 233.86C187.518 205.863 200.722 179.994 220.762 159.934C240.803 139.874 266.659 126.646 294.652 122.132C308.976 119.856 323.568 119.856 337.891 122.132C365.847 126.691 391.664 139.921 411.691 159.953L467.5 215.763L507.164 255.426L633.632 381.894L593.972 421.556Z" fill="black"></path>
<path d="M360.221 0C161.253 0 0 161.253 0 360.219C0 559.186 161.253 720.548 360.221 720.548C559.188 720.548 720.549 559.186 720.549 360.219C720.549 161.253 559.186 0 360.221 0ZM593.972 421.556L467.508 295.09L355.884 406.713L482.352 533.18L442.688 572.844L316.223 446.376L189.539 573.057L149.984 533.394L276.667 406.713L220.748 350.899C200.706 330.894 187.504 305.062 183.03 277.1C180.647 262.785 180.647 248.175 183.03 233.86C187.518 205.863 200.722 179.994 220.762 159.934C240.803 139.874 266.659 126.646 294.652 122.132C308.976 119.856 323.568 119.856 337.891 122.132C365.847 126.691 391.664 139.921 411.691 159.953L467.5 215.763L507.164 255.426L633.632 381.894L593.972 421.556Z" stroke="black"></path>
</svg><style>@media (prefers-color-scheme: light) { :root { filter: none; } }
@media (prefers-color-scheme: dark) { :root { filter: invert(100%); } }
</style></svg>